<svg width="933" height="545" viewBox="0 0 933 545" fill="none" xmlns="http://www.w3.org/2000/svg">
<path d="M854.1 58.3287H78.918V487.22H854.1V58.3287Z" fill="#EB760F"/>
<path d="M826.486 77.321H106.536V466.497H826.486V77.321Z" fill="white"/>
<path d="M903.944 470.91H885.803V522.946H903.944V470.91Z" fill="#572D21"/>
<path d="M905.599 500.158H884.189C881.874 500.158 879.998 502.035 879.998 504.354V514.87C879.998 517.186 881.874 519.063 884.189 519.063H905.599C907.915 519.063 909.79 517.186 909.79 514.87V504.354C909.79 502.037 907.915 500.158 905.599 500.158Z" fill="#804230"/>
<path d="M904.137 522.946H885.739C884.248 522.946 882.973 524.025 882.724 525.496L880.308 539.874C880.133 540.907 880.931 541.848 881.977 541.848H907.783C908.824 541.848 909.619 540.915 909.454 539.887L907.155 525.52C906.916 524.036 905.64 522.946 904.137 522.946Z" fill="#804230"/>
<path d="M48.5086 474.062H30.3672V526.098H48.5086V474.062Z" fill="#572D21"/>
<path d="M50.1639 503.31H28.7535C26.4381 503.31 24.5625 505.186 24.5625 507.503V518.018C24.5625 520.335 26.4381 522.215 28.7535 522.215H50.1639C52.4793 522.215 54.3549 520.338 54.3549 518.018V507.503C54.3549 505.189 52.4793 503.31 50.1639 503.31Z" fill="#804230"/>
<path d="M48.7019 526.098H30.3035C28.8121 526.098 27.5378 527.177 27.2888 528.648L24.8728 543.025C24.6979 544.059 25.4953 545 26.5444 545H52.3498C53.3909 545 54.1856 544.067 54.0214 543.036L51.7219 528.669C51.4809 527.187 50.204 526.098 48.7019 526.098Z" fill="#804230"/>
<path d="M903.944 20.2938H885.803V72.3297H903.944V20.2938Z" fill="#572D21"/>
<path d="M905.599 43.0792H884.189C881.874 43.0792 879.998 41.2025 879.998 38.8831V28.3678C879.998 26.0511 881.874 24.1744 884.189 24.1744H905.599C907.915 24.1744 909.79 26.0511 909.79 28.3678V38.8831C909.79 41.2025 907.915 43.0792 905.599 43.0792Z" fill="#804230"/>
<path d="M904.137 20.2938H885.739C884.248 20.2938 882.973 19.2149 882.724 17.7438L880.308 3.3664C880.133 2.33263 880.931 1.39163 881.977 1.39163H907.783C908.824 1.39163 909.619 2.32468 909.454 3.35315L907.155 17.7199C906.916 19.2017 905.64 20.2938 904.137 20.2938Z" fill="#804230"/>
<path d="M48.5301 18.9048H30.3887V70.9407H48.5301V18.9048Z" fill="#572D21"/>
<path d="M50.1854 41.6902H28.7776C26.4622 41.6902 24.584 39.8135 24.584 37.4942V26.9788C24.584 24.6621 26.4596 22.7854 28.7776 22.7854H50.1854C52.5008 22.7854 54.379 24.6621 54.379 26.9788V37.4942C54.3764 39.8135 52.5008 41.6902 50.1854 41.6902Z" fill="#804230"/>
<path d="M48.7228 18.9048H30.3244C28.8329 18.9048 27.5587 17.826 27.3097 16.3548L24.8936 1.97477C24.7215 0.940999 25.5162 0 26.5626 0H52.368C53.4118 0 54.2065 0.933047 54.0396 1.96417L51.7375 16.331C51.5017 17.8127 50.2249 18.9048 48.7228 18.9048Z" fill="#804230"/>
<path opacity="0.99" d="M824.689 307.725V465.026H600.958C518.839 480.249 427.814 483.575 345.886 465.026H115.558V281.555C85.1912 211.849 76.0728 133.903 80.0677 58.3287H78.918V487.22H854.1V214.224C848.028 246.566 839.175 278.369 824.689 307.725Z" fill="#D85D1B"/>
<path d="M78.9189 58.3268L78.9189 487.218H86.3127L86.3127 58.3268H78.9189Z" fill="#BD5814"/>
<path d="M0.000976563 56.5995L0.000976562 487.219H78.9193L78.9193 56.5995H0.000976563Z" fill="#EB760F"/>
<path d="M39.4591 48.9452C61.2511 48.9452 78.9183 52.3699 78.9183 56.5978C78.9183 60.823 61.2511 64.2503 39.4591 64.2503C17.6672 64.2503 0 60.823 0 56.5978C0 52.3699 17.6672 48.9452 39.4591 48.9452Z" fill="#EB760F"/>
<path d="M39.4591 479.565C61.2511 479.565 78.9183 482.989 78.9183 487.217C78.9183 491.445 61.2511 494.87 39.4591 494.87C17.6672 494.87 0 491.445 0 487.217C0 482.992 17.6672 479.565 39.4591 479.565Z" fill="#EB760F"/>
<path d="M63.5793 488.028C42.4443 488.028 25.3123 484.704 25.3123 480.607V62.9886C25.3123 58.8906 42.4443 55.5666 63.5793 55.5666C69.0127 55.5666 74.1706 55.7893 78.8517 56.1869C77.739 52.1525 60.5751 48.9478 39.5011 48.9478C17.7092 48.9478 0.0419922 52.3725 0.0419922 56.6004V487.22C0.0419922 491.448 17.7092 494.873 39.5011 494.873C60.9699 494.873 78.7854 491.792 78.9179 487.22C74.2209 487.618 69.0365 488.028 63.5793 488.028Z" fill="#DA5A0A"/>
<path d="M854.081 56.5115V487.131H932.999V56.5115H854.081Z" fill="#EB760F"/>
<path d="M893.541 48.8577C915.333 48.8577 933 52.2851 933 56.5103C933 60.7355 915.333 64.1629 893.541 64.1629C871.749 64.1629 854.082 60.7355 854.082 56.5103C854.082 52.2851 871.747 48.8577 893.541 48.8577Z" fill="#EB760F"/>
<path d="M893.541 479.48C915.333 479.48 933 482.907 933 487.133C933 491.358 915.333 494.785 893.541 494.785C871.749 494.785 854.082 491.358 854.082 487.133C854.082 482.905 871.747 479.48 893.541 479.48Z" fill="#EB760F"/>
<path d="M917.662 487.941C896.527 487.941 879.395 484.617 879.395 480.519V62.9011C879.395 58.8032 896.527 55.4792 917.662 55.4792C923.095 55.4792 928.253 55.7018 932.934 56.0968C931.824 52.0651 914.658 48.8577 893.584 48.8577C871.792 48.8577 854.082 52.2851 854.082 56.5103V487.13C854.082 491.358 871.792 494.782 893.584 494.782C915.052 494.782 932.481 491.456 932.995 487.315C928.295 487.716 923.116 487.941 917.662 487.941Z" fill="#DA5A0A"/>
<path d="M846.708 58.3275V487.219H854.102V58.3275H846.708Z" fill="#BD5814"/>
<path d="M123.626 298.996C117.133 285.966 111.482 272.587 106.536 258.963V466.494H352.759C345.325 464.93 337.937 463.258 330.66 461.333C241.113 437.689 165.302 382.623 123.626 298.996Z" fill="#EDEDED"/>
<path d="M608.976 463.557C603.718 464.588 598.412 465.564 593.076 466.494H826.482V304.157C824.737 307.836 822.927 311.486 821.004 315.089C776.437 398.464 700.086 445.686 608.976 463.557Z" fill="#EDEDED"/>
<path d="M802.992 447.982H130.025V97.5643H802.992V447.982ZM132.667 445.336H800.349V100.207H132.667V445.336Z" fill="#EE8E44"/>
</svg>
