<svg width="933" height="545" viewBox="0 0 933 545" fill="none" xmlns="http://www.w3.org/2000/svg">
<path d="M854.101 58.3287H78.9185V487.22H854.101V58.3287Z" fill="#D11111"/>
<path d="M826.486 77.321H106.536V466.497H826.486V77.321Z" fill="white"/>
<path d="M903.944 470.91H885.803V522.946H903.944V470.91Z" fill="#572D21"/>
<path d="M905.6 500.158H884.189C881.874 500.158 879.999 502.035 879.999 504.354V514.87C879.999 517.186 881.874 519.063 884.189 519.063H905.6C907.915 519.063 909.791 517.186 909.791 514.87V504.354C909.791 502.037 907.915 500.158 905.6 500.158Z" fill="#804230"/>
<path d="M904.137 522.946H885.739C884.248 522.946 882.973 524.025 882.724 525.496L880.308 539.874C880.133 540.907 880.931 541.848 881.977 541.848H907.783C908.824 541.848 909.619 540.915 909.454 539.887L907.155 525.52C906.916 524.036 905.64 522.946 904.137 522.946Z" fill="#804230"/>
<path d="M48.5086 474.062H30.3672V526.098H48.5086V474.062Z" fill="#572D21"/>
<path d="M50.1644 503.31H28.7539C26.4386 503.31 24.563 505.186 24.563 507.503V518.018C24.563 520.335 26.4386 522.215 28.7539 522.215H50.1644C52.4798 522.215 54.3554 520.338 54.3554 518.018V507.503C54.3554 505.189 52.4798 503.31 50.1644 503.31Z" fill="#804230"/>
<path d="M48.7019 526.098H30.3035C28.8121 526.098 27.5378 527.177 27.2888 528.648L24.8728 543.025C24.6979 544.059 25.4953 545 26.5444 545H52.3498C53.3909 545 54.1856 544.067 54.0214 543.036L51.7219 528.669C51.4809 527.187 50.204 526.098 48.7019 526.098Z" fill="#804230"/>
<path d="M903.944 20.2938H885.803V72.3297H903.944V20.2938Z" fill="#572D21"/>
<path d="M905.6 43.0792H884.189C881.874 43.0792 879.999 41.2025 879.999 38.8831V28.3678C879.999 26.0511 881.874 24.1744 884.189 24.1744H905.6C907.915 24.1744 909.791 26.0511 909.791 28.3678V38.8831C909.791 41.2025 907.915 43.0792 905.6 43.0792Z" fill="#804230"/>
<path d="M904.137 20.2938H885.739C884.248 20.2938 882.973 19.2149 882.724 17.7438L880.308 3.3664C880.133 2.33263 880.931 1.39163 881.977 1.39163H907.783C908.824 1.39163 909.619 2.32468 909.454 3.35315L907.155 17.7199C906.916 19.2017 905.64 20.2938 904.137 20.2938Z" fill="#804230"/>
<path d="M48.5296 18.9048H30.3882V70.9407H48.5296V18.9048Z" fill="#572D21"/>
<path d="M50.1854 41.6902H28.7776C26.4622 41.6902 24.584 39.8135 24.584 37.4942V26.9788C24.584 24.6621 26.4596 22.7854 28.7776 22.7854H50.1854C52.5008 22.7854 54.379 24.6621 54.379 26.9788V37.4942C54.3764 39.8135 52.5008 41.6902 50.1854 41.6902Z" fill="#804230"/>
<path d="M48.7233 18.9048H30.3249C28.8334 18.9048 27.5592 17.826 27.3102 16.3548L24.8941 1.97477C24.7219 0.940999 25.5167 0 26.5631 0H52.3685C53.4123 0 54.207 0.933047 54.0401 1.96417L51.738 16.331C51.5022 17.8127 50.2253 18.9048 48.7233 18.9048Z" fill="#804230"/>
<path opacity="0.99" d="M824.69 307.725V465.026H600.958C518.84 480.249 427.815 483.575 345.887 465.026H115.559V281.555C85.1917 211.849 76.0733 133.903 80.0682 58.3287H78.9185V487.22H854.101V214.224C848.029 246.566 839.175 278.369 824.69 307.725Z" fill="#A51313"/>
<path d="M78.9194 58.3268L78.9194 487.218H86.3132L86.3132 58.3268H78.9194Z" fill="#AD0707"/>
<path d="M0.000976563 56.5995L0.000976562 487.219H78.9193L78.9193 56.5995H0.000976563Z" fill="#D11111"/>
<path d="M39.4591 48.9452C61.2511 48.9452 78.9183 52.3699 78.9183 56.5978C78.9183 60.823 61.2511 64.2503 39.4591 64.2503C17.6672 64.2503 0 60.823 0 56.5978C0 52.3699 17.6672 48.9452 39.4591 48.9452Z" fill="#D11111"/>
<path d="M39.4591 479.565C61.2511 479.565 78.9183 482.989 78.9183 487.217C78.9183 491.445 61.2511 494.87 39.4591 494.87C17.6672 494.87 0 491.445 0 487.217C0 482.992 17.6672 479.565 39.4591 479.565Z" fill="#D11111"/>
<path d="M63.5798 488.028C42.4448 488.028 25.3128 484.704 25.3128 480.607V62.9886C25.3128 58.8906 42.4448 55.5666 63.5798 55.5666C69.0132 55.5666 74.1711 55.7893 78.8521 56.1869C77.7395 52.1525 60.5756 48.9478 39.5016 48.9478C17.7097 48.9478 0.0424805 52.3725 0.0424805 56.6004V487.22C0.0424805 491.448 17.7097 494.873 39.5016 494.873C60.9704 494.873 78.7859 491.792 78.9184 487.22C74.2214 487.618 69.037 488.028 63.5798 488.028Z" fill="#C11616"/>
<path d="M854.081 56.5115V487.131H932.999V56.5115H854.081Z" fill="#D11111"/>
<path d="M893.541 48.8577C915.333 48.8577 933 52.2851 933 56.5103C933 60.7355 915.333 64.1629 893.541 64.1629C871.749 64.1629 854.082 60.7355 854.082 56.5103C854.082 52.2851 871.746 48.8577 893.541 48.8577Z" fill="#D11111"/>
<path d="M893.541 479.48C915.333 479.48 933 482.907 933 487.133C933 491.358 915.333 494.785 893.541 494.785C871.749 494.785 854.082 491.358 854.082 487.133C854.082 482.905 871.747 479.48 893.541 479.48Z" fill="#D11111"/>
<path d="M917.662 487.941C896.527 487.941 879.395 484.617 879.395 480.519V62.9011C879.395 58.8032 896.527 55.4792 917.662 55.4792C923.095 55.4792 928.253 55.7018 932.934 56.0968C931.824 52.0651 914.658 48.8577 893.584 48.8577C871.792 48.8577 854.082 52.2851 854.082 56.5103V487.13C854.082 491.358 871.792 494.782 893.584 494.782C915.052 494.782 932.481 491.456 932.995 487.315C928.295 487.716 923.116 487.941 917.662 487.941Z" fill="#C11616"/>
<path d="M846.708 58.3275V487.219H854.102V58.3275H846.708Z" fill="#AD0707"/>
<path d="M123.625 298.996C117.132 285.966 111.482 272.587 106.536 258.963V466.494H352.759C345.325 464.93 337.937 463.258 330.659 461.333C241.113 437.689 165.302 382.623 123.625 298.996Z" fill="#EDEDED"/>
<path d="M608.977 463.557C603.718 464.588 598.412 465.564 593.077 466.494H826.483V304.157C824.737 307.836 822.928 311.486 821.005 315.089C776.438 398.464 700.087 445.686 608.977 463.557Z" fill="#EDEDED"/>
<path d="M802.993 447.982H130.026V97.5643H802.993V447.982ZM132.667 445.336H800.349V100.207H132.667V445.336Z" fill="#EA5C5C"/>
</svg>
